<?xml version="1.0" encoding="utf-8"?>
<!-- Svg Vector Icons : http://www.onlinewebfonts.com/icon -->
<!DOCTYPE svg PUBLIC "-//W3C//DTD SVG 1.1//EN" "http://www.w3.org/Graphics/SVG/1.1/DTD/svg11.dtd">
<svg version="1.1" xmlns="http://www.w3.org/2000/svg" xmlns:xlink="http://www.w3.org/1999/xlink" x="0px" y="0px" viewBox="0 0 1000 1000" enable-background="new 0 0 1000 1000" xml:space="preserve">
<metadata> Svg Vector Icons : http://www.onlinewebfonts.com/icon </metadata>
<g><path d="M618.6,377.6H389.1c-12.4,0-22.4,10-22.4,23.2c0,13.2,10,23.2,22.4,23.2h229.5c12.4,0,22.4-10.8,22.4-23.2C641.2,387.6,631,377.6,618.6,377.6z M434.9,721h-91.4V309.3h320.9V583c0,13.2,10,23.2,22.4,23.2c12.4,0,22.4-10.8,22.4-23.2V284.5c0-12.4-10-22.4-22.4-23.2c-2.7,0-5.5,0.5-7.8,1.6H322.5c-8.3,0-15.5,4.6-19.4,11.2c-2.9,3.8-4.6,8.5-4.6,13.6v456.6c0,9.1,5.5,17,13.3,20.5c3.1,1.8,6.9,2.7,10.7,2.7h112.4c12.4,0,22.4-10.8,22.4-23.2C457.4,731,447.3,721,434.9,721z M651.2,631.8c0-44.2-35.6-80.6-80.6-80.6c-44.2,0-80.6,35.6-80.6,80.6c0,45,36.4,80.6,80.6,80.6c19.2,0,36.9-6.9,50.9-18.3l102.6,91.2l22.4-26.3L643,667C648.2,656.3,651.2,644.4,651.2,631.8z M570.6,674.4c-24,0-43.4-19.4-43.4-43.4s19.4-43.4,43.4-43.4S614,607,614,631C614,655.1,594.6,674.4,570.6,674.4z M500,10C229.4,10,10,229.4,10,500c0,270.6,219.4,490,490,490c270.6,0,490-219.4,490-490C990,229.4,770.6,10,500,10z M502.4,959C250.3,959,45.8,754.6,45.8,502.4S250.3,45.8,502.4,45.8S959,250.3,959,502.4C959,754.6,754.6,959,502.4,959z M389.1,469c-12.4,0-22.4,10-22.4,23.2c0,13.2,10,23.2,22.4,23.2h229.5c12.4,0,22.4-10.8,22.4-23.2c0.1-13.2-10-23.2-22.4-23.2H389.1z"/></g>
</svg>